<?xml version="1.0" encoding="UTF-8"?>
<svg xmlns="http://www.w3.org/2000/svg" viewBox="0 0 1100 720" role="img" aria-labelledby="title desc">
  <title id="title">City of Dalaran The Underbelly route route schematic</title><desc id="desc">A not-to-scale route schematic generated from sourced entrance and boss coordinates.</desc>
  <defs><linearGradient id="bg" x1="0" y1="0" x2="1" y2="1"><stop stop-color="#10151d"/><stop offset="1" stop-color="#06090d"/></linearGradient><filter id="glow"><feGaussianBlur stdDeviation="4" result="b"/><feMerge><feMergeNode in="b"/><feMergeNode in="SourceGraphic"/></feMerge></filter></defs>
  <style>.grid path{stroke:#26303b;stroke-width:1;opacity:.42}.route{fill:none;stroke:#c99a3d;stroke-width:7;stroke-linecap:round;stroke-linejoin:round;stroke-dasharray:13 10;opacity:.78;filter:url(#glow)}.boss circle{fill:#111923;stroke:#f1c96a;stroke-width:4}.boss .number{fill:#fff2c8;font:700 14px system-ui}.boss .label,.entrance text{fill:#f3ead8;font:700 15px system-ui;paint-order:stroke;stroke:#070a0e;stroke-width:5px;stroke-linejoin:round}.entrance circle{fill:#173228;stroke:#55d39a;stroke-width:4}.entrance path{fill:#8ff2c2}.meta{fill:#8593a4;font:600 12px system-ui;letter-spacing:2px}.floor{fill:#f1c96a;font:700 18px system-ui}</style>
  <rect width="1100" height="720" fill="url(#bg)"/><rect x="68" y="72" width="964" height="582" rx="18" fill="#0b1017" stroke="#394654" stroke-width="2"/><g class="grid"><path d="M 68 72 V 654"/><path d="M 68 72 H 1032"/><path d="M 164.4 72 V 654"/><path d="M 68 130.2 H 1032"/><path d="M 260.8 72 V 654"/><path d="M 68 188.4 H 1032"/><path d="M 357.2 72 V 654"/><path d="M 68 246.6 H 1032"/><path d="M 453.6 72 V 654"/><path d="M 68 304.8 H 1032"/><path d="M 550 72 V 654"/><path d="M 68 363 H 1032"/><path d="M 646.4 72 V 654"/><path d="M 68 421.2 H 1032"/><path d="M 742.8 72 V 654"/><path d="M 68 479.4 H 1032"/><path d="M 839.2 72 V 654"/><path d="M 68 537.6 H 1032"/><path d="M 935.6 72 V 654"/><path d="M 68 595.8 H 1032"/><path d="M 1032 72 V 654"/><path d="M 68 654 H 1032"/></g><path class="route" d="M 249.2 564.4 L 592.4 371.7"/><g class="entrance" transform="translate(249.232 564.372)"><circle r="18"/><path d="M -7 5 L 0 -7 L 7 5 Z"/><text x="25" y="5">ENTRANCE</text></g><g class="boss" transform="translate(592.416 371.73)"><circle r="19"/><text class="number" text-anchor="middle" y="5">1</text><text class="label" x="25" y="5" text-anchor="start">Atrexis the Grave Knight</text></g>
  <text class="meta" x="68" y="40">ROUTE SCHEMATIC · NOT TO SCALE</text><text class="floor" x="1032" y="40" text-anchor="end">The Underbelly route</text><text class="meta" x="68" y="690">CONNECTORS SHOW ENCOUNTER SEQUENCE, NOT WALKABLE GEOMETRY</text>
</svg>