<?xml version="1.0" encoding="UTF-8"?>
<svg xmlns="http://www.w3.org/2000/svg" viewBox="0 0 1100 720" role="img" aria-labelledby="title desc">
  <title id="title">Ruins of Lordaeron Dungeon route route schematic</title>
  <desc id="desc">A not-to-scale route schematic generated from sourced entrance and boss coordinates.</desc>
  <defs><linearGradient id="bg" x1="0" y1="0" x2="1" y2="1"><stop stop-color="#10151d"/><stop offset="1" stop-color="#06090d"/></linearGradient><filter id="glow"><feGaussianBlur stdDeviation="4" result="b"/><feMerge><feMergeNode in="b"/><feMergeNode in="SourceGraphic"/></feMerge></filter></defs>
  <style>.grid path{stroke:#26303b;stroke-width:1;opacity:.42}.route{fill:none;stroke:#c99a3d;stroke-width:7;stroke-linecap:round;stroke-linejoin:round;stroke-dasharray:13 10;opacity:.78;filter:url(#glow)}.boss circle{fill:#111923;stroke:#f1c96a;stroke-width:4}.boss .number{fill:#fff2c8;font:700 14px system-ui}.boss .label,.entrance text{fill:#f3ead8;font:700 15px system-ui;paint-order:stroke;stroke:#070a0e;stroke-width:5px;stroke-linejoin:round}.entrance circle{fill:#173228;stroke:#55d39a;stroke-width:4}.entrance path{fill:#8ff2c2}.meta{fill:#8593a4;font:600 12px system-ui;letter-spacing:2px}.floor{fill:#f1c96a;font:700 18px system-ui}</style>
  <rect width="1100" height="720" fill="url(#bg)"/><rect x="68" y="72" width="964" height="582" rx="18" fill="#0b1017" stroke="#394654" stroke-width="2"/>
  <g class="grid"><path d="M 68 72 V 654"/><path d="M 68 72 H 1032"/><path d="M 164.4 72 V 654"/><path d="M 68 130.2 H 1032"/><path d="M 260.8 72 V 654"/><path d="M 68 188.4 H 1032"/><path d="M 357.2 72 V 654"/><path d="M 68 246.6 H 1032"/><path d="M 453.6 72 V 654"/><path d="M 68 304.8 H 1032"/><path d="M 550 72 V 654"/><path d="M 68 363 H 1032"/><path d="M 646.4 72 V 654"/><path d="M 68 421.2 H 1032"/><path d="M 742.8 72 V 654"/><path d="M 68 479.4 H 1032"/><path d="M 839.2 72 V 654"/><path d="M 68 537.6 H 1032"/><path d="M 935.6 72 V 654"/><path d="M 68 595.8 H 1032"/><path d="M 1032 72 V 654"/><path d="M 68 654 H 1032"/></g><path class="route" d="M 661.8 198.3 L 749.5 303.1 L 640.6 475.9 L 436.2 464.9 L 459.4 381.6 L 462.3 251.8 L 519.2 430.5 L 404.4 292.0"/><g class="entrance" transform="translate(661.824 198.29399999999998)"><circle r="18"/><path d="M -7 5 L 0 -7 L 7 5 Z"/><text x="25" y="5">ENTRANCE</text></g><g class="boss" transform="translate(749.548 303.054)"><circle r="19"/><text class="number" text-anchor="middle" y="5">1</text><text class="label" x="-25" y="5" text-anchor="end">Witherfang</text></g><g class="boss" transform="translate(640.616 475.90799999999996)"><circle r="19"/><text class="number" text-anchor="middle" y="5">2</text><text class="label" x="25" y="5" text-anchor="start">The Baron</text></g><g class="boss" transform="translate(436.248 464.85)"><circle r="19"/><text class="number" text-anchor="middle" y="5">3</text><text class="label" x="25" y="5" text-anchor="start">Viktor the Vile</text></g><g class="boss" transform="translate(459.384 381.624)"><circle r="19"/><text class="number" text-anchor="middle" y="5">4</text><text class="label" x="25" y="5" text-anchor="start">The Abandoned</text></g><g class="boss" transform="translate(462.27599999999995 251.838)"><circle r="19"/><text class="number" text-anchor="middle" y="5">5</text><text class="label" x="25" y="5" text-anchor="start">Bjork</text></g><g class="boss" transform="translate(519.152 430.512)"><circle r="19"/><text class="number" text-anchor="middle" y="5">6</text><text class="label" x="25" y="5" text-anchor="start">Rath'mael</text></g><g class="boss" transform="translate(404.436 291.996)"><circle r="19"/><text class="number" text-anchor="middle" y="5">7</text><text class="label" x="25" y="5" text-anchor="start">Lordaeron Captain</text></g>
  <text class="meta" x="68" y="40">ROUTE SCHEMATIC · NOT TO SCALE</text><text class="floor" x="1032" y="40" text-anchor="end">Dungeon route</text>
  <text class="meta" x="68" y="690">CONNECTORS SHOW ENCOUNTER SEQUENCE, NOT WALKABLE GEOMETRY</text>
</svg>